<svg aria-hidden="true" style="position: absolute; width: 0; height: 0; overflow: hidden;" version="1.1" xmlns="http://www.w3.org/2000/svg" xmlns:xlink="http://www.w3.org/1999/xlink">
<defs>
<symbol id="icon-arrow" viewBox="0 0 29 32">
<path d="M6.082 0.857c-2.61-1.536-5.901 0.346-5.901 3.375v23.538c0 3.029 3.29 4.911 5.901 3.375l20.006-11.768c2.574-1.514 2.574-5.236 0-6.75l-20.006-11.77z"></path>
</symbol>
<symbol id="icon-body" viewBox="0 0 64 32">
<path d="M47.373 1.254h-30.745c-8.49 0-15.373 6.883-15.373 15.373s6.883 15.373 15.373 15.373h30.745c8.49 0 15.373-6.883 15.373-15.373s-6.883-15.373-15.373-15.373z"></path>
</symbol>
<symbol id="icon-head" viewBox="0 0 34 32">
<path d="M16.941 31.003c8.562 0 15.502-6.94 15.502-15.502s-6.94-15.502-15.502-15.502c-8.561 0-15.502 6.94-15.502 15.502s6.94 15.502 15.502 15.502z"></path>
</symbol>
<symbol id="icon-heard" viewBox="0 0 40 32">
<path d="M19.942 24.789c-2.344-2.344-2.344-6.142 0-8.486 1.171-1.169 2.707-1.756 4.242-1.756s3.071 0.585 4.242 1.756c0.255 0.255 0.467 0.531 0.667 0.816 0.2-0.284 0.413-0.562 0.667-0.816 1.171-1.169 2.707-1.756 4.242-1.756s3.071 0.585 4.242 1.756c0.078 0.078 0.133 0.171 0.207 0.253 2.48-4.217 1.949-9.715-1.671-13.335-2.147-2.146-4.964-3.22-7.779-3.22s-5.631 1.075-7.779 3.222c-0.465 0.465-0.856 0.975-1.222 1.496-0.365-0.522-0.756-1.031-1.222-1.496-2.147-2.147-4.964-3.222-7.779-3.222s-5.631 1.075-7.779 3.222c-4.297 4.297-4.297 11.261 0 15.557 1.867 1.867 13.166 11.266 13.95 12.050 0.782 0.782 1.806 1.171 2.829 1.171s2.047-0.391 2.829-1.171c0.184-0.184 0.956-0.849 2.036-1.769-1.945-1.651-4.326-3.671-4.926-4.271z"></path>
</symbol>
<symbol id="icon-heard-2" viewBox="0 0 41 32">
<path d="M37.74 3.378c-2.135-2.135-4.937-3.206-7.736-3.206s-5.6 1.068-7.736 3.203c-0.464 0.464-0.852 0.968-1.217 1.489-0.365-0.521-0.753-1.025-1.217-1.489-2.135-2.132-4.937-3.203-7.736-3.203s-5.6 1.068-7.736 3.203c-4.274 4.274-4.274 11.2 0 15.474 1.857 1.857 13.094 11.204 13.873 11.983s1.797 1.164 2.815 1.164c1.018 0 2.036-0.388 2.815-1.164 0.782-0.779 12.019-10.13 13.873-11.983 4.274-4.274 4.274-11.197 0-15.471z"></path>
</symbol>
<symbol id="icon-phone" viewBox="0 0 32 32">
<path d="M25.854 31.453c-0.011 0-0.022 0-0.033 0-5.279-0.173-11.463-5.29-15.724-9.553-4.266-4.263-9.383-10.45-9.548-15.704-0.060-1.844 4.464-5.122 4.511-5.155 1.174-0.818 2.478-0.527 3.013 0.214 0.362 0.502 3.792 5.698 4.165 6.288 0.387 0.612 0.329 1.523-0.154 2.436-0.266 0.508-1.15 2.060-1.564 2.785 0.447 0.636 1.63 2.198 4.071 4.639 2.445 2.442 4.003 3.627 4.642 4.074 0.724-0.414 2.277-1.298 2.785-1.564 0.9-0.477 1.805-0.538 2.423-0.159 0.631 0.387 5.814 3.833 6.291 4.165 0.401 0.283 0.659 0.765 0.711 1.328 0.049 0.568-0.126 1.169-0.491 1.693-0.030 0.044-3.27 4.513-5.098 4.513z"></path>
</symbol>
<symbol id="icon-tic" viewBox="0 0 45 32">
<path d="M18.435 30.81c-1.070 0-2.141-0.41-2.956-1.225l-12.545-12.545c-1.635-1.635-1.635-4.278 0-5.913s4.278-1.635 5.913 0l9.588 9.589 17.952-17.952c1.635-1.635 4.278-1.635 5.913 0s1.635 4.278 0 5.913l-20.908 20.908c-0.815 0.815-1.886 1.225-2.956 1.225z"></path>
</symbol>
</defs>
</svg>
