<svg aria-hidden="true" style="position: absolute; width: 0; height: 0; overflow: hidden;" version="1.1" xmlns="http://www.w3.org/2000/svg" xmlns:xlink="http://www.w3.org/1999/xlink">
<defs>
<symbol id="icon-arrow" viewBox="0 0 29 32">
<path d="M6.082 0.857c-2.61-1.536-5.901 0.346-5.901 3.375v23.538c0 3.029 3.29 4.911 5.901 3.375l20.006-11.768c2.574-1.514 2.574-5.236 0-6.75l-20.006-11.77z"></path>
</symbol>
<symbol id="icon-person" viewBox="0 0 32 32">
<path fill="#fff" style="fill: var(--color1, #fff); stroke: var(--color2, #dcddeb)" stroke="#dcddeb" stroke-linejoin="miter" stroke-linecap="butt" stroke-miterlimit="4" stroke-width="0.3478" d="M16 26.957c6.819 0 12.348-5.528 12.348-12.348s-5.528-12.348-12.348-12.348c-6.819 0-12.348 5.528-12.348 12.348s5.528 12.348 12.348 12.348z"></path>
<path fill="#123578" style="fill: var(--color4, #123578)" d="M18.506 15.509h-5.013c-1.384 0-2.506 1.122-2.506 2.506s1.122 2.506 2.506 2.506h5.013c1.384 0 2.506-1.122 2.506-2.506s-1.122-2.506-2.506-2.506z"></path>
<path fill="#0075ff" style="fill: var(--color3, #0075ff)" d="M16 14.077c1.582 0 2.864-1.282 2.864-2.864s-1.282-2.864-2.864-2.864c-1.582 0-2.864 1.282-2.864 2.864s1.282 2.864 2.864 2.864z"></path>
</symbol>
<symbol id="icon-hearts" viewBox="0 0 32 32">
<path fill="#fff" style="fill: var(--color1, #fff); stroke: var(--color2, #dcddeb)" stroke="#dcddeb" stroke-linejoin="miter" stroke-linecap="butt" stroke-miterlimit="4" stroke-width="0.3478" d="M16 26.957c6.819 0 12.348-5.528 12.348-12.348s-5.528-12.348-12.348-12.348c-6.819 0-12.348 5.528-12.348 12.348s5.528 12.348 12.348 12.348z"></path>
<path fill="#0075ff" style="fill: var(--color3, #0075ff)" d="M15.763 17.396c-0.79-0.79-0.79-2.070 0-2.859 0.395-0.394 0.912-0.592 1.429-0.592s1.035 0.197 1.429 0.592c0.086 0.086 0.157 0.179 0.225 0.275 0.067-0.096 0.139-0.189 0.225-0.275 0.395-0.394 0.912-0.592 1.429-0.592s1.035 0.197 1.429 0.592c0.026 0.026 0.045 0.058 0.070 0.085 0.836-1.421 0.657-3.274-0.563-4.493-0.724-0.723-1.673-1.085-2.621-1.085s-1.898 0.362-2.621 1.086c-0.157 0.157-0.289 0.328-0.412 0.504-0.123-0.176-0.255-0.347-0.412-0.504-0.724-0.724-1.673-1.086-2.621-1.086s-1.897 0.362-2.621 1.086c-1.448 1.448-1.448 3.794 0 5.242 0.629 0.629 4.436 3.796 4.7 4.060s0.608 0.395 0.953 0.395 0.69-0.132 0.953-0.395c0.062-0.062 0.322-0.286 0.686-0.596-0.656-0.556-1.458-1.237-1.66-1.439z"></path>
<path fill="#123578" style="fill: var(--color4, #123578)" d="M21.93 14.537c-0.395-0.395-0.912-0.592-1.429-0.592s-1.035 0.197-1.429 0.592c-0.086 0.086-0.157 0.179-0.225 0.275-0.067-0.096-0.139-0.189-0.225-0.275-0.395-0.394-0.912-0.592-1.429-0.592s-1.035 0.197-1.429 0.592c-0.79 0.79-0.79 2.070 0 2.859 0.343 0.343 2.419 2.070 2.563 2.214s0.332 0.215 0.52 0.215c0.188 0 0.376-0.072 0.52-0.215s2.221-1.872 2.563-2.214c0.79-0.79 0.79-2.069 0-2.859z"></path>
</symbol>
<symbol id="icon-ticked" viewBox="0 0 32 32">
<path fill="#fff" style="fill: var(--color1, #fff); stroke: var(--color2, #dcddeb)" stroke="#dcddeb" stroke-linejoin="miter" stroke-linecap="butt" stroke-miterlimit="4" stroke-width="0.3478" d="M16 26.957c6.819 0 12.348-5.528 12.348-12.348s-5.528-12.348-12.348-12.348c-6.819 0-12.348 5.528-12.348 12.348s5.528 12.348 12.348 12.348z"></path>
<path fill="#0075ff" style="fill: var(--color3, #0075ff)" d="M15.861 21.288c3.765 0 6.818-3.052 6.818-6.818s-3.053-6.818-6.818-6.818c-3.765 0-6.818 3.052-6.818 6.818s3.053 6.818 6.818 6.818z"></path>
<path fill="#edf5ff" style="fill: var(--color5, #edf5ff)" d="M15.18 17.197c-0.175 0-0.349-0.067-0.482-0.2l-2.045-2.045c-0.267-0.267-0.267-0.697 0-0.964s0.697-0.267 0.964 0l1.563 1.563 2.927-2.927c0.267-0.267 0.697-0.267 0.964 0s0.267 0.697 0 0.964l-3.409 3.409c-0.133 0.133-0.307 0.2-0.482 0.2z"></path>
</symbol>
<symbol id="icon-phone" viewBox="0 0 32 32">
<path d="M25.854 31.453c-0.011 0-0.022 0-0.033 0-5.279-0.173-11.463-5.29-15.724-9.553-4.266-4.263-9.383-10.45-9.548-15.704-0.060-1.844 4.464-5.122 4.511-5.155 1.174-0.818 2.478-0.527 3.013 0.214 0.362 0.502 3.792 5.698 4.165 6.288 0.387 0.612 0.329 1.523-0.154 2.436-0.266 0.508-1.15 2.060-1.564 2.785 0.447 0.636 1.63 2.198 4.071 4.639 2.445 2.442 4.003 3.627 4.642 4.074 0.724-0.414 2.277-1.298 2.785-1.564 0.9-0.477 1.805-0.538 2.423-0.159 0.631 0.387 5.814 3.833 6.291 4.165 0.401 0.283 0.659 0.765 0.711 1.328 0.049 0.568-0.126 1.169-0.491 1.693-0.030 0.044-3.27 4.513-5.098 4.513z"></path>
</symbol>
<symbol id="icon-tic" viewBox="0 0 45 32">
<path d="M18.435 30.81c-1.070 0-2.141-0.41-2.956-1.225l-12.545-12.545c-1.635-1.635-1.635-4.278 0-5.913s4.278-1.635 5.913 0l9.588 9.589 17.952-17.952c1.635-1.635 4.278-1.635 5.913 0s1.635 4.278 0 5.913l-20.908 20.908c-0.815 0.815-1.886 1.225-2.956 1.225z"></path>
</symbol>
<symbol id="icon-frame" viewBox="0 0 32 32">
<path fill="#edf5ff" style="fill: var(--color1, #edf5ff)" d="M0 7.111c0-3.927 3.184-7.111 7.111-7.111h17.778c3.927 0 7.111 3.184 7.111 7.111v17.778c0 3.927-3.184 7.111-7.111 7.111h-17.778c-3.927 0-7.111-3.184-7.111-7.111v-17.778z"></path>
</symbol>
</defs>
</svg>
